<?xml version="1.0" encoding="utf-8"?>
<!-- Generator: Adobe Illustrator 21.0.0, SVG Export Plug-In . SVG Version: 6.00 Build 0)  -->
<svg version="1.1" id="Layer_1" xmlns="http://www.w3.org/2000/svg" xmlns:xlink="http://www.w3.org/1999/xlink" x="0px" y="0px"
	 viewBox="0 0 100 100" style="enable-background:new 0 0 100 100;" xml:space="preserve">
<style type="text/css">
	.st0{fill:#C5100C;}
	.st1{fill:#E92321;}
	.st2{fill:#666666;}
	.st3{fill:#B3B3B3;}
	.st4{fill:#CCCCCC;}
	.st5{fill:#B9BCBA;}
	.st6{fill:#F4F4F4;}
	.st7{fill:#FFFFFF;}
	.st8{fill:#FDAE09;}
	.st9{fill:#FFE41F;}
	.st10{fill:#FFF7EA;}
	.st11{fill:#FE2527;}
	.st12{opacity:4.000000e-02;}
	.st13{fill:#4D4D4D;}
	.st14{opacity:0.47;fill:#E6E6E6;stroke:#808080;stroke-width:2;stroke-miterlimit:10;}
	.st15{fill:#00A0AB;}
	.st16{opacity:0.12;fill:#FFFFFF;}
	.st17{fill:#007C7C;}
	.st18{opacity:0.48;fill:#FFFFFF;}
	.st19{opacity:0.75;}
	.st20{fill:#C1272D;}
	.st21{opacity:0.17;fill:#666666;}
	.st22{fill:#F7D500;}
	.st23{fill:#D2D3D5;}
	.st24{fill:#A8A9AA;}
	.st25{fill:#181818;}
	.st26{fill:#EAEDF1;}
	.st27{fill:#D8D8D8;}
	.st28{fill:#C61934;}
	.st29{fill:#FBD50A;}
	.st30{fill:#39B54A;}
	.st31{fill:#8FB6D7;}
	.st32{fill:#155283;}
	.st33{opacity:0.75;fill:#C1272D;}
	.st34{opacity:0.33;fill:#E92321;}
	.st35{opacity:4.000000e-02;fill:#666666;}
	.st36{fill:#2E4551;}
	.st37{fill:none;stroke:#2E4551;stroke-miterlimit:10;}
	.st38{fill:#324D5B;}
	.st39{fill:#2D4552;}
	.st40{fill:#3F5E6D;}
	.st41{fill:#E4E7E7;}
	.st42{fill:#BCBEBE;}
	.st43{opacity:0.11;fill:#333333;}
	.st44{fill:#C49541;}
	.st45{fill:#158784;}
	.st46{fill:#E6C05C;}
	.st47{fill:#E6E6E6;}
	.st48{fill:url(#SVGID_1_);}
	.st49{fill:url(#SVGID_2_);}
	.st50{fill:url(#SVGID_3_);}
</style>
<g>
	<g id="Layer_4">
		<path class="st23" d="M63.8,80.1c0,0.6-5.9,0.9-13.2,0.9s-13.4-0.2-13.4-0.9c0-0.6,6-0.8,13.3-0.8S63.8,79.5,63.8,80.1z"/>
		<polygon class="st23" points="60.7,80.2 40,80.2 41.7,72.3 58.9,72.3 		"/>
		<polygon class="st24" points="51.1,80.7 39.9,80.6 41.5,72.4 59.2,72.4 		"/>
		<path class="st23" d="M12.7,22.3c0-1.3,1-2.3,2.3-2.3h71c1.3,0,2.3,1,2.3,2.3v48.2c0,1.3-1,2.3-2.3,2.3H15c-1.3,0-2.3-1-2.3-2.3
			V22.3z"/>
		<path class="st25" d="M88.2,65.9V22.3c0-1.2-1-2.3-2.3-2.3H15c-1.2,0-2.3,1-2.3,2.3v43.7"/>
		<g>
			<path class="st26" d="M16,62c0,0.4,0.3,0.8,0.8,0.8H84c0.4,0,0.8-0.3,0.8-0.8V24.5c0-0.4-0.3-0.8-0.8-0.8H16.8
				c-0.4,0-0.8,0.3-0.8,0.8V62z"/>
		</g>
		<g>
			<path class="st27" d="M16,25.3c0,0.4,0.3,0.8,0.8,0.8H84c0.4,0,0.8-0.3,0.8-0.8v-0.8c0-0.4-0.3-0.8-0.8-0.8H16.8
				c-0.4,0-0.8,0.3-0.8,0.8V25.3z"/>
		</g>
		<circle class="st28" cx="17.8" cy="25" r="0.6"/>
		<circle class="st29" cx="19.6" cy="25" r="0.6"/>
		<circle class="st30" cx="21.5" cy="25" r="0.6"/>
		<path class="st24" d="M50.8,80c1.4,0.5,0.9,0.5-6.7,0.7c-3.7,0.1-6.7-0.4-6.7-0.7c0-0.3,3-0.5,6.7-0.5
			C47.8,79.5,50.5,79.9,50.8,80z"/>
	</g>
	<g>
		<path class="st15" d="M23,56.6L23,56.6c-0.3,0-0.6-0.3-0.6-0.6V33.5c0-0.3,0.3-0.6,0.6-0.6l0,0c0.3,0,0.6,0.3,0.6,0.6V56
			C23.7,56.3,23.4,56.6,23,56.6z"/>
		<path class="st15" d="M48.4,56L48.4,56c0,0.3-0.3,0.6-0.6,0.6H23c-0.3,0-0.6-0.3-0.6-0.6l0,0c0-0.3,0.3-0.6,0.6-0.6h24.8
			C48.1,55.3,48.4,55.6,48.4,56z"/>
	</g>
	<path class="st31" d="M46.3,38.5l-0.3-0.2c-0.3-0.2-0.8,0-0.9,0.2l-5.9,9.2l-6-4.5c-0.3-0.2-0.7-0.2-1,0.1l-0.3,0.2
		c-0.1,0.1-0.2,0.2-0.2,0.3c-0.1,0-0.1,0.1-0.2,0.2L27,51c-0.2,0.3-0.1,0.7,0.3,0.8l0.3,0.2c0.3,0.2,0.8,0,0.9-0.2l4.3-6.7l6.1,4.6
		c0.3,0.2,0.7,0.2,1-0.1l0.3-0.2c0.1-0.1,0.2-0.2,0.2-0.4l6.2-9.7C46.7,39,46.6,38.6,46.3,38.5z"/>
	<path class="st1" d="M26.6,35.5H26c-0.3,0-0.6-0.3-0.6-0.6l0,0c0-0.3,0.3-0.6,0.6-0.6h0.6c0.3,0,0.6,0.3,0.6,0.6l0,0
		C27.1,35.2,26.9,35.5,26.6,35.5z"/>
	<path class="st31" d="M26.6,37.4H26c-0.3,0-0.6-0.3-0.6-0.6l0,0c0-0.3,0.3-0.6,0.6-0.6h0.6c0.3,0,0.6,0.3,0.6,0.6l0,0
		C27.1,37.2,26.9,37.4,26.6,37.4z"/>
	<path class="st32" d="M30.4,35.5H28c-0.3,0-0.6-0.3-0.6-0.6l0,0c0-0.3,0.3-0.6,0.6-0.6h2.4c0.3,0,0.6,0.3,0.6,0.6l0,0
		C30.9,35.2,30.7,35.5,30.4,35.5z"/>
	<path class="st32" d="M30.4,37.4H28c-0.3,0-0.6-0.3-0.6-0.6l0,0c0-0.3,0.3-0.6,0.6-0.6h2.4c0.3,0,0.6,0.3,0.6,0.6l0,0
		C30.9,37.2,30.7,37.4,30.4,37.4z"/>
	<path class="st8" d="M68,39.4l-6.3-2.3v6.5c0,0,0,0,0.1,0C64.6,43.7,67,41.9,68,39.4z"/>
	<path class="st1" d="M55.3,34.9c-0.2,0.6-0.3,1.3-0.3,2c0,3.7,3,6.7,6.7,6.7v-6.5v-7C58.7,30.3,56.2,32.2,55.3,34.9z"/>
	<path class="st33" d="M61.7,30.2C61.7,30.2,61.7,30.2,61.7,30.2l-0.1,7l6.3,2.3c0.3-0.8,0.5-1.6,0.5-2.5
		C68.5,33.2,65.5,30.2,61.7,30.2z"/>
	<path class="st1" d="M75.8,52.3c0,0.6-0.1,1.2-0.4,1.7c-0.6,1.2-1.9,2-3.3,2c-0.2,0-0.4,0-0.5,0c-1.8-0.3-3.2-1.8-3.2-3.7
		c0-0.5,0.1-0.9,0.3-1.4c0.5-1.4,1.9-2.4,3.5-2.4c0.1,0,0.1,0,0.2,0l0.8-3.4c-0.3,0-0.6-0.1-1-0.1c-0.6,0-1.2,0.1-1.7,0.2
		c-1.5,0.4-2.8,1.2-3.7,2.3c-1.1,1.3-1.8,2.9-1.8,4.8c0,4,3.2,7.2,7.2,7.2c0.5,0,1,0,1.4-0.1c1.5-0.3,2.8-1,3.8-2.1
		c1.2-1.3,2-3.1,2-5c0-0.9-0.2-1.8-0.5-2.6l-3.2,1.5C75.7,51.6,75.8,52,75.8,52.3z"/>
	<path class="st34" d="M73,45.2l-0.8,3.4c0,0,0,0,0,0c1.6,0.1,2.9,1.2,3.4,2.6l3.2-1.5C77.8,47.3,75.6,45.5,73,45.2z"/>
	<circle class="st32" cx="27.4" cy="51.7" r="1.4"/>
	<circle class="st32" cx="32.7" cy="43.9" r="1.4"/>
	<circle class="st32" cx="39.4" cy="48.7" r="1.4"/>
	<circle class="st32" cx="45.6" cy="38.8" r="1.4"/>
	<path class="st35" d="M88.1,22.3L88.1,22.3c0-1.3-1-2.3-2.3-2.3h0c0,0,0,0,0,0H75.6v0c0.2,1.2,0.3,2.5,0.4,3.8
		c0,0.7,0.1,1.5,0.1,2.3c0,0.8,0,1.5,0,2.3c0,12.9-3.6,24.7-9.6,34.4c-0.7,1.1-1.4,2.2-2.1,3.2c-1.7,2.3-5.1,6.4-5.1,6.4
		c-0.1,0.1-5.8,5.1-8.6,7c-0.3,0.2-0.5,0.4-0.8,0.5c-0.2,0.1-0.3,0.2-0.5,0.3c-0.2,0.1-0.8,0.5-0.8,0.5c-0.2,0.1-0.3,0.2-0.5,0.3
		c0.8,0,1.6,0,2.5,0c7.3,0,13.2-0.2,13.2-0.9c0-0.3-1.2-0.5-3.3-0.6l-1.5-6.7h26.9c1.3,0,2.3-1,2.3-2.3L88.1,22.3
		C88.1,22.3,88.1,22.3,88.1,22.3z"/>
</g>
</svg>
