<svg enable-background="new 0 0 100 100" viewBox="0 0 100 100" xmlns="http://www.w3.org/2000/svg"><path d="m63.8 80.1c0 .6-5.9.9-13.2.9s-13.4-.2-13.4-.9c0-.6 6-.8 13.3-.8s13.3.2 13.3.8z" fill="#d2d3d5"/><path d="m60.7 80.2h-20.7l1.7-7.9h17.2z" fill="#d2d3d5"/><path d="m51.1 80.7-11.2-.1 1.6-8.2h17.7z" fill="#a8a9aa"/><path d="m12.7 22.3c0-1.3 1-2.3 2.3-2.3h71c1.3 0 2.3 1 2.3 2.3v48.2c0 1.3-1 2.3-2.3 2.3h-71c-1.3 0-2.3-1-2.3-2.3z" fill="#d2d3d5"/><path d="m88.2 65.9v-43.6c0-1.2-1-2.3-2.3-2.3h-70.9c-1.2 0-2.3 1-2.3 2.3v43.7" fill="#181818"/><path d="m16 62c0 .4.3.8.8.8h67.2c.4 0 .8-.3.8-.8v-37.5c0-.4-.3-.8-.8-.8h-67.2c-.4 0-.8.3-.8.8z" fill="#eaedf1"/><path d="m16 25.3c0 .4.3.8.8.8h67.2c.4 0 .8-.3.8-.8v-.8c0-.4-.3-.8-.8-.8h-67.2c-.4 0-.8.3-.8.8z" fill="#d8d8d8"/><circle cx="17.8" cy="25" fill="#c61934" r=".6"/><circle cx="19.6" cy="25" fill="#fbd50a" r=".6"/><circle cx="21.5" cy="25" fill="#39b54a" r=".6"/><path d="m50.8 80c1.4.5.9.5-6.7.7-3.7.1-6.7-.4-6.7-.7s3-.5 6.7-.5 6.4.4 6.7.5z" fill="#a8a9aa"/><path d="m23 56.6c-.3 0-.6-.3-.6-.6v-22.5c0-.3.3-.6.6-.6.3 0 .6.3.6.6v22.5c.1.3-.2.6-.6.6z" fill="#00a0ab"/><path d="m48.4 56c0 .3-.3.6-.6.6h-24.8c-.3 0-.6-.3-.6-.6 0-.3.3-.6.6-.6h24.8c.3-.1.6.2.6.6z" fill="#00a0ab"/><path d="m46.3 38.5-.3-.2c-.3-.2-.8 0-.9.2l-5.9 9.2-6-4.5c-.3-.2-.7-.2-1 .1l-.3.2c-.1.1-.2.2-.2.3-.1 0-.1.1-.2.2l-4.5 7c-.2.3-.1.7.3.8l.3.2c.3.2.8 0 .9-.2l4.3-6.7 6.1 4.6c.3.2.7.2 1-.1l.3-.2c.1-.1.2-.2.2-.4l6.2-9.7c.1-.3 0-.7-.3-.8z" fill="#8fb6d7"/><path d="m26.6 35.5h-.6c-.3 0-.6-.3-.6-.6 0-.3.3-.6.6-.6h.6c.3 0 .6.3.6.6-.1.3-.3.6-.6.6z" fill="#e92321"/><path d="m26.6 37.4h-.6c-.3 0-.6-.3-.6-.6 0-.3.3-.6.6-.6h.6c.3 0 .6.3.6.6-.1.4-.3.6-.6.6z" fill="#8fb6d7"/><path d="m30.4 35.5h-2.4c-.3 0-.6-.3-.6-.6 0-.3.3-.6.6-.6h2.4c.3 0 .6.3.6.6-.1.3-.3.6-.6.6z" fill="#155283"/><path d="m30.4 37.4h-2.4c-.3 0-.6-.3-.6-.6 0-.3.3-.6.6-.6h2.4c.3 0 .6.3.6.6-.1.4-.3.6-.6.6z" fill="#155283"/><path d="m68 39.4-6.3-2.3v6.5h.1c2.8.1 5.2-1.7 6.2-4.2z" fill="#fdae09"/><path d="m55.3 34.9c-.2.6-.3 1.3-.3 2 0 3.7 3 6.7 6.7 6.7v-6.5-7c-3 .2-5.5 2.1-6.4 4.8z" fill="#e92321"/><path d="m61.7 30.2-.1 7 6.3 2.3c.3-.8.5-1.6.5-2.5.1-3.8-2.9-6.8-6.7-6.8z" fill="#c1272d" opacity=".75"/><path d="m75.8 52.3c0 .6-.1 1.2-.4 1.7-.6 1.2-1.9 2-3.3 2-.2 0-.4 0-.5 0-1.8-.3-3.2-1.8-3.2-3.7 0-.5.1-.9.3-1.4.5-1.4 1.9-2.4 3.5-2.4h.2l.8-3.4c-.3 0-.6-.1-1-.1-.6 0-1.2.1-1.7.2-1.5.4-2.8 1.2-3.7 2.3-1.1 1.3-1.8 2.9-1.8 4.8 0 4 3.2 7.2 7.2 7.2.5 0 1 0 1.4-.1 1.5-.3 2.8-1 3.8-2.1 1.2-1.3 2-3.1 2-5 0-.9-.2-1.8-.5-2.6l-3.2 1.5c0 .4.1.8.1 1.1z" fill="#e92321"/><path d="m73 45.2-.8 3.4c1.6.1 2.9 1.2 3.4 2.6l3.2-1.5c-1-2.4-3.2-4.2-5.8-4.5z" fill="#e92321" opacity=".33"/><g fill="#155283"><circle cx="27.4" cy="51.7" r="1.4"/><circle cx="32.7" cy="43.9" r="1.4"/><circle cx="39.4" cy="48.7" r="1.4"/><circle cx="45.6" cy="38.8" r="1.4"/></g><path d="m88.1 22.3c0-1.3-1-2.3-2.3-2.3h-10.2c.2 1.2.3 2.5.4 3.8 0 .7.1 1.5.1 2.3v2.3c0 12.9-3.6 24.7-9.6 34.4-.7 1.1-1.4 2.2-2.1 3.2-1.7 2.3-5.1 6.4-5.1 6.4-.1.1-5.8 5.1-8.6 7-.3.2-.5.4-.8.5-.2.1-.3.2-.5.3s-.8.5-.8.5c-.2.1-.3.2-.5.3h2.5c7.3 0 13.2-.2 13.2-.9 0-.3-1.2-.5-3.3-.6l-1.5-6.7h26.9c1.3 0 2.3-1 2.3-2.3z" fill="#666" opacity=".04"/></svg>