<?xml version="1.0" encoding="UTF-8" standalone="no"?><!DOCTYPE svg PUBLIC "-//W3C//DTD SVG 1.1//EN" "http://www.w3.org/Graphics/SVG/1.1/DTD/svg11.dtd"><svg width="100%" height="100%" viewBox="0 0 66 67" version="1.1" xmlns="http://www.w3.org/2000/svg" xmlns:xlink="http://www.w3.org/1999/xlink" xml:space="preserve" xmlns:serif="http://www.serif.com/" style="fill-rule:evenodd;clip-rule:evenodd;stroke-linejoin:round;stroke-miterlimit:1.41421;"><g><g><path d="M26.8,20.1c1.1,1.6 1.8,3.7 1.8,5.6c0,0.5 0.5,1 1,1l6.7,0c0.6,0 1,-0.4 1,-1c0,-1.9 0.7,-4.1 1.8,-5.6c3.3,-4.7 0.8,-11.3 -4.4,-12.5c-3.1,-0.7 -6.1,0.5 -7.9,3.2c-1.9,2.8 -1.9,6.5 0,9.3Z" style="fill:#fd0;fill-rule:nonzero;"/><path d="M35.444,15.766l-1.655,0.116l1.386,-5.518l-4.417,7.802l1.678,-0.058l-1.652,5.552l4.66,-7.894Z" style="fill:#ff9100;fill-rule:nonzero;"/><path d="M44.1,16.4l1.4,0c0.6,0 1,-0.4 1,-1c0,-0.6 -0.4,-1 -1,-1l-1.4,0c-0.6,0 -1,0.4 -1,1c0,0.5 0.4,1 1,1Z" style="fill:#ffab00;fill-rule:nonzero;"/><path d="M41.5,7.8l1,-1.1c0.4,-0.4 0.4,-1 0,-1.4c-0.4,-0.4 -1,-0.4 -1.4,0l-1,1.1c-0.4,0.4 -0.4,1 0,1.4c0.4,0.4 1.1,0.4 1.4,0Z" style="fill:#ffab00;fill-rule:nonzero;"/><path d="M33,4.7c0.6,0 1,-0.4 1,-1l0,-1.5c0,-0.6 -0.4,-1 -1,-1c-0.6,0 -1,0.4 -1,1l0,1.5c0,0.5 0.4,1 1,1Z" style="fill:#ffab00;fill-rule:nonzero;"/><path d="M24.4,7.8c0.4,0.4 1,0.4 1.4,0c0.4,-0.4 0.4,-1 0,-1.4l-1,-1.1c-0.4,-0.4 -1,-0.4 -1.4,0c-0.4,0.4 -0.4,1 0,1.4l1,1.1Z" style="fill:#ffab00;fill-rule:nonzero;"/><path d="M20.4,16.4l1.4,0c0.6,0 1,-0.4 1,-1c0,-0.6 -0.4,-1 -1,-1l-1.4,0c-0.6,0 -1,0.4 -1,1c0,0.5 0.5,1 1,1Z" style="fill:#ffab00;fill-rule:nonzero;"/><path d="M24.8,25.4l1,-1.1c0.4,-0.4 0.4,-1 0,-1.4c-0.4,-0.4 -1,-0.4 -1.4,0l-1,1.1c-0.4,0.4 -0.4,1 0,1.4c0.4,0.4 1,0.4 1.4,0Z" style="fill:#ffab00;fill-rule:nonzero;"/><path d="M41.5,22.9c-0.4,-0.4 -1,-0.4 -1.4,0c-0.4,0.4 -0.4,1 0,1.4l1,1.1c0.4,0.4 1,0.4 1.4,0c0.4,-0.4 0.4,-1 0,-1.4l-1,-1.1Z" style="fill:#ffab00;fill-rule:nonzero;"/><path d="M31.2,28.4c-0.6,0 -1,0.4 -1,1c0,0.6 0.4,1 1,1l3.5,0c0.6,0 1,-0.4 1,-1c0,-0.6 -0.4,-1 -1,-1l-3.5,0Z" style="fill:#a8a8a8;fill-rule:nonzero;"/><path d="M61.9,37.9c-1.2,-2.2 2.9,5.6 -5.5,-10.5c-0.1,-0.3 -0.4,-0.5 -0.5,-0.6l-10.3,-4.7c-0.5,-0.2 -1.1,0 -1.3,0.5c-0.2,0.5 0,1.1 0.5,1.3l8.1,3.7l-19.7,7.5c-27.2,-10.5 -17.8,-6.8 -19.9,-7.6l8.3,-3.5c0.5,-0.2 0.7,-0.8 0.5,-1.3c-0.2,-0.5 -0.8,-0.7 -1.3,-0.5l-10.5,4.5c-0.3,0.1 -0.4,0.4 -0.5,0.5l-4.843,10.053c-0.3,0.6 0.019,1.061 0.619,1.261l23.124,8.386c0.4,0.1 1,-0.1 1.2,-0.6l3.3,-7.6l3.8,7.7c0.2,0.4 0.6,0.7 1.2,0.5l23.1,-7.5c0.6,-0.3 0.8,-0.9 0.6,-1.5Z" style="fill:#ac8559;fill-rule:nonzero;"/></g><g><path d="M31.7,47.1l0.4,-0.9l0,18.7l-21.7,-8.9c-0.4,-0.2 -0.6,-0.5 -0.6,-0.9l0.324,-12.811l17.876,6.411c1.5,0.5 3.1,-0.2 3.7,-1.6Z" style="fill:#a98a57;fill-rule:nonzero;"/><path d="M56.4,43l0,12c0,0.4 -0.2,0.8 -0.6,0.9l-21.7,8.9l-0.038,-18.497c0.099,0.272 0.509,0.807 0.511,0.81c0.903,1.81 2.007,2.342 4.027,1.687c11.1,-3.6 15.5,-5 17,-5.5l0.3,0c0.1,0 0.1,0 0.1,-0.1l0.1,0c0.2,-0.2 0.3,-0.2 0.3,-0.2Z" style="fill:#a98a57;fill-rule:nonzero;"/></g></g></svg>