<?xml version="1.0" encoding="utf-8"?>
<!-- Generator: Adobe Illustrator 21.0.0, SVG Export Plug-In . SVG Version: 6.00 Build 0)  -->
<svg version="1.1" id="Layer_1" xmlns="http://www.w3.org/2000/svg" xmlns:xlink="http://www.w3.org/1999/xlink" x="0px" y="0px"
	 viewBox="0 0 100 100" style="enable-background:new 0 0 100 100;" xml:space="preserve">
<style type="text/css">
	.st0{fill:#C5100C;}
	.st1{fill:#E92321;}
	.st2{fill:#666666;}
	.st3{fill:#B3B3B3;}
	.st4{fill:#CCCCCC;}
	.st5{fill:#B9BCBA;}
	.st6{fill:#F4F4F4;}
	.st7{fill:#FDAE09;}
	.st8{fill:#FFE41F;}
	.st9{fill:#FFF7EA;}
	.st10{fill:#FE2527;}
	.st11{opacity:4.000000e-02;}
	.st12{fill:#FFFFFF;}
	.st13{fill:#4D4D4D;}
	.st14{opacity:0.47;fill:#E6E6E6;stroke:#808080;stroke-width:2;stroke-miterlimit:10;}
	.st15{fill:#00A0AB;}
	.st16{opacity:0.12;fill:#FFFFFF;}
	.st17{fill:#007C7C;}
	.st18{opacity:0.48;fill:#FFFFFF;}
	.st19{opacity:0.75;}
	.st20{fill:#C1272D;}
	.st21{opacity:0.17;fill:#666666;}
	.st22{fill:#F7D500;}
	.st23{fill:#D2D3D5;}
	.st24{fill:#A8A9AA;}
	.st25{fill:#181818;}
	.st26{fill:#EAEDF1;}
	.st27{fill:#D8D8D8;}
	.st28{fill:#C61934;}
	.st29{fill:#FBD50A;}
	.st30{fill:#39B54A;}
	.st31{fill:#8FB6D7;}
	.st32{fill:#155283;}
	.st33{opacity:0.75;fill:#C1272D;}
	.st34{opacity:0.33;fill:#E92321;}
	.st35{opacity:4.000000e-02;fill:#666666;}
	.st36{fill:#2E4551;}
	.st37{fill:none;stroke:#2E4551;stroke-miterlimit:10;}
	.st38{fill:#324D5B;}
	.st39{fill:#2D4552;}
	.st40{fill:#3F5E6D;}
	.st41{fill:#E4E7E7;}
	.st42{fill:#BCBEBE;}
	.st43{opacity:0.11;fill:#333333;}
	.st44{fill:#C49541;}
	.st45{fill:#158784;}
	.st46{fill:#E6C05C;}
	.st47{fill:#E6E6E6;}
	.st48{fill:url(#SVGID_1_);}
	.st49{fill:url(#SVGID_2_);}
	.st50{fill:url(#SVGID_3_);}
</style>
<g>
	<g>
		<g>
			<path class="st0" d="M64.6,55.3L60.2,59c0,0-1.6,9.9-6,15.1c0,0,10.3-4.6,12.5-9.4C66.7,64.8,66.2,58.1,64.6,55.3z"/>
			<path class="st1" d="M64.8,55.2l-4.3,3.7c0,0-2.1,10.1-6.3,15.3c0,0,10.6-4.7,12.7-9.5C67,64.7,66.5,58.1,64.8,55.2z"/>
		</g>
		<g>
			<path class="st0" d="M51.6,44.2l-3.7,4.3c0,0-10.6,2.1-16.1,6.5c0,0,4.3-9.8,9.3-12C41.1,42.9,48.4,42.8,51.6,44.2z"/>
			<path class="st1" d="M51.7,43.9L48,48.1c0,0-10.8,2.6-16.2,6.8c0,0,4.4-10,9.5-12.2C41.2,42.6,48.4,42.6,51.7,43.9z"/>
		</g>
		<path class="st2" d="M44.7,53.2c0,0.1,0,0.3,0,0.4c-0.5,2.9,0.1,5.5,2.1,7.2c0,0,0.1,0,0.1,0.1c0,0,0.1,0.1,0.1,0.1
			c2,1.7,4.8,2.1,8,1.4c0.1,0,0.1,0,0.2,0c-1.7-1.2-3.3-2.4-4.9-3.8C48.2,56.8,46.3,55,44.7,53.2z"/>
		<path class="st3" d="M56.9,61.4c-2.2,2.9-5.2,1.1-9.1-2.3c-3.9-3.3-5.2-5.7-2.4-7.6C49.3,54.9,53.1,58.1,56.9,61.4z"/>
		<g id="XMLID_2_">
			<g>
				<path class="st4" d="M71.5,49.2C63.3,57.3,56,62.5,56,62.5s-5.3-2.8-6.8-4.1c-1.4-1.3-4.9-6-4.9-6s5.1-7.1,13.5-15
					c7.5-7.2,21.2-10.2,23.8-10.7C81.2,29,78.8,41.8,71.5,49.2z"/>
			</g>
		</g>
		<g>
			<path class="st5" d="M34.5,66.7c-2.5,2.5-5,5.1-7.6,7.6c1.8-3.6-0.4-8.4-4.5-9.6c-1.9-0.6-4.2-0.4-5.6,0.9
				c-1.4,1.3-1.5,3.7,0.1,4.8c0.2-0.9-0.5-1.8-1.3-2.2c-2.6-1.6-6.4-0.5-8.2,1.8c-1.8,2.3-1.8,5.5-0.7,8.1c1.8,4.4,7.5,7.6,12.1,5.7
				c-2.6-0.4-5.3,1.5-5.9,3.9s0.4,5,2,6.9c4.1,4.8,12.3,6,17.8,2.6c0.6-0.3,1-1.3,0.3-1.4c-0.6,1.2,0.5,2.7,1.9,3
				c1.4,0.3,2.8-0.3,4-1.1c3.2-2.1,5.1-5.8,4.8-9.4c-0.3-3.6-2.7-7-6.2-8.8c-1.7-0.8-3.9-1.3-5.5-0.3c2.8,0.9,6.1-1.9,5.3-4.6"/>
		</g>
		<g>
			<path class="st6" d="M39.9,71.7c-2.6,3.2-5.3,6.4-7.9,9.5c1.5-0.6,3.4-0.4,4.3,0.8c0.9,1.2,0.2,3.3-1.4,3.5
				c2.6,1,3.2,4.6,1.3,6.6c-1.8,2-5.2,2.4-7.8,1.4c-2.5-0.9-4.7-3.1-4.3-5.5c-1.1,1.6-3.6,2-5.4,1.1c-1.8-0.9-2.8-2.8-2.7-4.7
				c0.1-2.1,2.1-4.3,4.4-3.9c-2,0.1-3.9-1.3-4.7-3c-0.6-1.2-0.8-2.5-0.2-3.7c0.5-1.2,1.9-2.1,3.3-1.9s2.4,1.7,1.9,2.9
				c-0.9,0.2-1.7-0.6-1.7-1.4s0.5-1.6,1-2.2c1.1-1.5,2.5-3.2,4.5-3.2c1.5-0.1,2.9,0.9,3.7,2.1c0.8,1.2,1,2.6,1.3,4
				c1-0.7,2.3-2.9,3.4-3.2c1.3-0.3,3.6,0.8,4.8,1.1c0.8,0.2,1.9,0.4,2.4-0.3"/>
		</g>
		<g>
			<g>
				<path class="st7" d="M50.5,64.1c-0.1-1.5-1-2.8-2.2-3.9c0.3,0.4,0.4,0.8,0.5,1.2c0.3,2.9-6,5.7-7.3,4.7c-1.3-1,1.4-7.3,4.4-7.2
					c0.1,0,0.3,0,0.4,0c-0.7-0.4-1.5-0.6-2.3-0.7c-5.5-0.9-9.2,4.6-9.9,6.3c0,0.1-0.6,1.3-0.3,1.4c0.3,0.2,1.3-1.2,1.6-1.1
					c0.3,0.2-2.2,2.8-2.6,6.5c-0.2,1.6,0.2,2.7-0.7,3.8c-1,1.3-2.6,1.5-2.5,1.6c0.1,0.3,6.2-0.6,12.6-3.6c2-1,2.9-1.6,3.3-1.9
					C47.4,69.9,50.8,67.4,50.5,64.1z"/>
				<path class="st7" d="M48.3,60.2c-0.5-0.6-1.2-1.2-2-1.3C47.1,59.2,47.8,59.7,48.3,60.2z"/>
			</g>
			<g id="XMLID_1_">
				<g>
					<path class="st8" d="M49.3,62.3c0.5,4.7-10.3,9.6-12.2,8c-1.9-1.7,3.2-12.1,8.1-11.8C47.1,58.6,49.1,60.4,49.3,62.3z"/>
				</g>
			</g>
			<path class="st9" d="M41.5,66.1c1.2,1,7.6-1.8,7.3-4.7c0-0.4-0.2-0.8-0.5-1.2c-0.6-0.5-1.2-1-2-1.3c-0.1,0-0.3,0-0.4,0
				C42.9,58.9,40.2,65.1,41.5,66.1z"/>
		</g>
		<g>
			<polyline class="st10" points="50.9,58.9 36.1,71.9 48.8,57.1 53.4,54.7 			"/>
			<polyline class="st10" points="50.9,58.9 36.1,71.9 48.8,57.1 53.4,54.7 			"/>
			<polyline class="st10" points="50.9,58.9 36.1,71.9 48.8,57.1 53.4,54.7 			"/>
			<polyline class="st10" points="50.9,58.9 36.1,71.9 48.8,57.1 53.4,54.7 			"/>
			<polyline class="st10" points="50.9,58.9 36.1,71.9 48.8,57.1 53.4,54.7 			"/>
		</g>
		<path class="st1" d="M79.1,36.2c1.8-5.2,2.5-9.5,2.5-9.5l0,0c0,0-4.6,0.9-10.1,2.9c0.7,1.4,1.8,2.8,3.3,4
			C76,34.7,77.5,35.6,79.1,36.2z"/>
		<g class="st11">
			<path class="st12" d="M48.5,62.4c0.2,0.3,0.4,0.6,0.5,0.9c0.9,0.2,1.9,0.3,2.9,0.2c-0.9-0.3-1.8-0.9-2.8-1.6
				C48.9,62.1,48.7,62.3,48.5,62.4z"/>
			<path class="st13" d="M70,50.6c4.4-3.7,7.3-9.4,9-14.3c1.9-5.2,2.5-9.6,2.5-9.6l0,0c0,0,0,0-0.1,0c0-0.1,0-0.1,0-0.1l0,0
				c0,0,0,0,0,0c-5.1,7.9-12.2,16.5-20.7,24.9c-2.8,2.7-6.8,5.8-9.6,8.3c1.7,1,4.8,2.6,4.8,2.6C59.6,60.4,70,50.6,70,50.6z"/>
		</g>
		<g>
			<path class="st14" d="M72,44.7c-2.5,2.4-6.6,2.5-9.2,0.3c-2.6-2.3-2.8-6-0.3-8.4c2.5-2.4,6.6-2.5,9.2-0.3S74.5,42.3,72,44.7z"/>
			<path class="st15" d="M71.4,44.2c-2.1,2.1-5.7,2.2-8,0.2c-2.3-2-2.4-5.2-0.3-7.3c2.1-2.1,5.7-2.2,8-0.2
				C73.4,38.8,73.5,42.1,71.4,44.2z"/>
			<path class="st16" d="M68.4,45.7c3.1-0.6,5-3.4,4.3-6.2c-0.3-1.3-1.2-2.5-2.3-3.2c0.5,0.6,0.8,1.2,1,2c0.7,2.8-1.3,5.6-4.3,6.2
				c-1.6,0.3-3.2,0-4.4-0.8C64,45.3,66.2,46.1,68.4,45.7z"/>
			<path class="st17" d="M66.4,36.1c1.6-0.4,3.2-0.2,4.5,0.5c-1.4-1-3.3-1.5-5.2-1c-3,0.8-4.7,3.7-3.8,6.5c0.4,1.3,1.4,2.3,2.5,3
				c-0.9-0.6-1.5-1.5-1.9-2.6C61.7,39.8,63.4,37,66.4,36.1z"/>
			<path class="st18" d="M68.7,37.8c-0.4,0.2-0.8,0-1-0.3c-0.2-0.3,0-0.7,0.3-0.9c0.4-0.2,0.8,0,1,0.3C69.2,37.2,69,37.6,68.7,37.8z
				"/>
			<path class="st18" d="M66.7,37.7c-0.2,0.1-0.5,0-0.6-0.2c-0.1-0.2,0-0.4,0.2-0.5c0.2-0.1,0.5,0,0.6,0.2
				C67,37.3,67,37.6,66.7,37.7z"/>
		</g>
		<g class="st19">
			<polyline class="st20" points="50.9,59 36.1,72 53.4,54.8 			"/>
			<polyline class="st10" points="50.9,59 36.1,72 53.4,54.8 			"/>
			<polyline class="st10" points="50.9,59 36.1,72 53.4,54.8 			"/>
			<polyline class="st10" points="50.9,59 36.1,72 53.4,54.8 			"/>
			<polyline class="st20" points="50.9,59 36.1,72 53.4,54.8 			"/>
		</g>
		<path class="st21" d="M48.8,62.1c-0.2,0.6-0.6,1.2-1.1,1.7c-1.1,1.1-2.8,2-4.2,2.3c-3.6,2.6-7.2,5-10.6,7c0,0.7-0.1,1.4-0.6,2
			c-1,1.3-2.6,1.5-2.5,1.6c0.1,0.3,6.2-0.6,12.6-3.6c2-1,2.9-1.6,3.3-1.9c1.9-1.4,5.3-3.9,4.9-7.2c-0.1-0.6-0.2-1.1-0.5-1.7
			C49.6,62.3,49.2,62.2,48.8,62.1C48.8,62.1,48.8,62.1,48.8,62.1z"/>
	</g>
	<path class="st22" d="M67.4,18.5c-2.7,1.7-7.4,2.1-11.1-0.2c-3.9-2.4-5.6-7.1-4-11c1.8-4.7,6.5-6.5,9.6-6.4
		c-4,2.7-5.7,6.3-4.3,10.7C58.9,16,62.4,18.2,67.4,18.5z"/>
	<polygon class="st22" points="45.4,27.7 43.6,27.5 42.3,28.8 42,27.1 40.3,26.4 41.9,25.6 42.1,23.9 43.5,25.1 45.3,24.7 
		44.5,26.2 	"/>
	<polygon class="st22" points="69.4,72.1 68.5,71.6 67.6,72 67.8,71.1 67.2,70.5 68.1,70.4 68.6,69.6 69,70.4 70,70.6 69.2,71.2 	
		"/>
	<polygon class="st22" points="61.7,88.3 60.7,87.4 59.4,87.6 60.1,86.5 59.4,85.4 60.8,85.6 61.7,84.7 61.9,86 63.1,86.5 
		61.9,87.1 	"/>
	<polygon class="st22" points="89.1,49 87.2,47.5 84.8,48.1 85.8,46 84.5,44.1 87,44.3 88.6,42.6 89.1,44.8 91.4,45.6 89.3,46.8 	
		"/>
	<polygon class="st22" points="25.8,25.3 24.1,24.6 22.4,25.5 22.6,23.7 21.1,22.6 23,22.2 23.8,20.6 24.7,22.1 26.7,22.3 
		25.4,23.6 	"/>
	<polygon class="st22" points="20.3,49.5 19.5,49 18.6,49.4 18.8,48.6 18.1,47.9 19.1,47.8 19.5,47 19.9,47.8 20.9,48 20.2,48.6 	
		"/>
	<polygon class="st22" points="95.9,34.7 95.1,34.2 94.2,34.6 94.4,33.7 93.7,33.1 94.7,33 95.2,32.2 95.5,33 96.5,33.2 95.8,33.8 	
		"/>
	<polygon class="st22" points="81.3,7.2 80.5,6.8 79.6,7.2 79.8,6.3 79.1,5.6 80.1,5.5 80.6,4.7 81,5.6 81.9,5.7 81.2,6.3 	"/>
</g>
</svg>
