<svg enable-background="new 0 0 100 100" viewBox="0 0 100 100" xmlns="http://www.w3.org/2000/svg"><path d="m64.6 55.3-4.4 3.7s-1.6 9.9-6 15.1c0 0 10.3-4.6 12.5-9.4 0 .1-.5-6.6-2.1-9.4z" fill="#c5100c"/><path d="m64.8 55.2-4.3 3.7s-2.1 10.1-6.3 15.3c0 0 10.6-4.7 12.7-9.5.1 0-.4-6.6-2.1-9.5z" fill="#e92321"/><path d="m51.6 44.2-3.7 4.3s-10.6 2.1-16.1 6.5c0 0 4.3-9.8 9.3-12 0-.1 7.3-.2 10.5 1.2z" fill="#c5100c"/><path d="m51.7 43.9-3.7 4.2s-10.8 2.6-16.2 6.8c0 0 4.4-10 9.5-12.2-.1-.1 7.1-.1 10.4 1.2z" fill="#e92321"/><path d="m44.7 53.2v.4c-.5 2.9.1 5.5 2.1 7.2 0 0 .1 0 .1.1 0 0 .1.1.1.1 2 1.7 4.8 2.1 8 1.4h.2c-1.7-1.2-3.3-2.4-4.9-3.8-2.1-1.8-4-3.6-5.6-5.4z" fill="#666"/><path d="m56.9 61.4c-2.2 2.9-5.2 1.1-9.1-2.3-3.9-3.3-5.2-5.7-2.4-7.6 3.9 3.4 7.7 6.6 11.5 9.9z" fill="#b3b3b3"/><path d="m71.5 49.2c-8.2 8.1-15.5 13.3-15.5 13.3s-5.3-2.8-6.8-4.1c-1.4-1.3-4.9-6-4.9-6s5.1-7.1 13.5-15c7.5-7.2 21.2-10.2 23.8-10.7-.4 2.3-2.8 15.1-10.1 22.5z" fill="#ccc"/><path d="m34.5 66.7c-2.5 2.5-5 5.1-7.6 7.6 1.8-3.6-.4-8.4-4.5-9.6-1.9-.6-4.2-.4-5.6.9s-1.5 3.7.1 4.8c.2-.9-.5-1.8-1.3-2.2-2.6-1.6-6.4-.5-8.2 1.8s-1.8 5.5-.7 8.1c1.8 4.4 7.5 7.6 12.1 5.7-2.6-.4-5.3 1.5-5.9 3.9s.4 5 2 6.9c4.1 4.8 12.3 6 17.8 2.6.6-.3 1-1.3.3-1.4-.6 1.2.5 2.7 1.9 3s2.8-.3 4-1.1c3.2-2.1 5.1-5.8 4.8-9.4s-2.7-7-6.2-8.8c-1.7-.8-3.9-1.3-5.5-.3 2.8.9 6.1-1.9 5.3-4.6" fill="#b9bcba"/><path d="m39.9 71.7c-2.6 3.2-5.3 6.4-7.9 9.5 1.5-.6 3.4-.4 4.3.8s.2 3.3-1.4 3.5c2.6 1 3.2 4.6 1.3 6.6-1.8 2-5.2 2.4-7.8 1.4-2.5-.9-4.7-3.1-4.3-5.5-1.1 1.6-3.6 2-5.4 1.1s-2.8-2.8-2.7-4.7c.1-2.1 2.1-4.3 4.4-3.9-2 .1-3.9-1.3-4.7-3-.6-1.2-.8-2.5-.2-3.7.5-1.2 1.9-2.1 3.3-1.9s2.4 1.7 1.9 2.9c-.9.2-1.7-.6-1.7-1.4s.5-1.6 1-2.2c1.1-1.5 2.5-3.2 4.5-3.2 1.5-.1 2.9.9 3.7 2.1s1 2.6 1.3 4c1-.7 2.3-2.9 3.4-3.2 1.3-.3 3.6.8 4.8 1.1.8.2 1.9.4 2.4-.3" fill="#f4f4f4"/><path d="m50.5 64.1c-.1-1.5-1-2.8-2.2-3.9.3.4.4.8.5 1.2.3 2.9-6 5.7-7.3 4.7s1.4-7.3 4.4-7.2h.4c-.7-.4-1.5-.6-2.3-.7-5.5-.9-9.2 4.6-9.9 6.3 0 .1-.6 1.3-.3 1.4.3.2 1.3-1.2 1.6-1.1.3.2-2.2 2.8-2.6 6.5-.2 1.6.2 2.7-.7 3.8-1 1.3-2.6 1.5-2.5 1.6.1.3 6.2-.6 12.6-3.6 2-1 2.9-1.6 3.3-1.9 1.9-1.3 5.3-3.8 5-7.1z" fill="#fdae09"/><path d="m48.3 60.2c-.5-.6-1.2-1.2-2-1.3.8.3 1.5.8 2 1.3z" fill="#fdae09"/><path d="m49.3 62.3c.5 4.7-10.3 9.6-12.2 8-1.9-1.7 3.2-12.1 8.1-11.8 1.9.1 3.9 1.9 4.1 3.8z" fill="#ffe41f"/><path d="m41.5 66.1c1.2 1 7.6-1.8 7.3-4.7 0-.4-.2-.8-.5-1.2-.6-.5-1.2-1-2-1.3-.1 0-.3 0-.4 0-3 0-5.7 6.2-4.4 7.2z" fill="#fff7ea"/><path d="m50.9 58.9-14.8 13 12.7-14.8 4.6-2.4" fill="#fe2527"/><path d="m50.9 58.9-14.8 13 12.7-14.8 4.6-2.4" fill="#fe2527"/><path d="m50.9 58.9-14.8 13 12.7-14.8 4.6-2.4" fill="#fe2527"/><path d="m50.9 58.9-14.8 13 12.7-14.8 4.6-2.4" fill="#fe2527"/><path d="m50.9 58.9-14.8 13 12.7-14.8 4.6-2.4" fill="#fe2527"/><path d="m79.1 36.2c1.8-5.2 2.5-9.5 2.5-9.5s-4.6.9-10.1 2.9c.7 1.4 1.8 2.8 3.3 4 1.2 1.1 2.7 2 4.3 2.6z" fill="#e92321"/><g opacity=".04"><path d="m48.5 62.4c.2.3.4.6.5.9.9.2 1.9.3 2.9.2-.9-.3-1.8-.9-2.8-1.6-.2.2-.4.4-.6.5z" fill="#fff"/><path d="m70 50.6c4.4-3.7 7.3-9.4 9-14.3 1.9-5.2 2.5-9.6 2.5-9.6s0 0-.1 0c0-.1 0-.1 0-.1-5.1 7.9-12.2 16.5-20.7 24.9-2.8 2.7-6.8 5.8-9.6 8.3 1.7 1 4.8 2.6 4.8 2.6 3.7-2 14.1-11.8 14.1-11.8z" fill="#4d4d4d"/></g><path d="m72 44.7c-2.5 2.4-6.6 2.5-9.2.3-2.6-2.3-2.8-6-.3-8.4s6.6-2.5 9.2-.3 2.8 6 .3 8.4z" fill="#e6e6e6" opacity=".47" stroke="#808080" stroke-miterlimit="10" stroke-width="2"/><path d="m71.4 44.2c-2.1 2.1-5.7 2.2-8 .2s-2.4-5.2-.3-7.3 5.7-2.2 8-.2c2.3 1.9 2.4 5.2.3 7.3z" fill="#00a0ab"/><path d="m68.4 45.7c3.1-.6 5-3.4 4.3-6.2-.3-1.3-1.2-2.5-2.3-3.2.5.6.8 1.2 1 2 .7 2.8-1.3 5.6-4.3 6.2-1.6.3-3.2 0-4.4-.8 1.3 1.6 3.5 2.4 5.7 2z" fill="#fff" opacity=".12"/><path d="m66.4 36.1c1.6-.4 3.2-.2 4.5.5-1.4-1-3.3-1.5-5.2-1-3 .8-4.7 3.7-3.8 6.5.4 1.3 1.4 2.3 2.5 3-.9-.6-1.5-1.5-1.9-2.6-.8-2.7.9-5.5 3.9-6.4z" fill="#007c7c"/><path d="m68.7 37.8c-.4.2-.8 0-1-.3s0-.7.3-.9c.4-.2.8 0 1 .3s0 .7-.3.9z" fill="#fff" opacity=".48"/><path d="m66.7 37.7c-.2.1-.5 0-.6-.2s0-.4.2-.5.5 0 .6.2c.1.1.1.4-.2.5z" fill="#fff" opacity=".48"/><g opacity=".75"><path d="m50.9 59-14.8 13 17.3-17.2" fill="#c1272d"/><g fill="#fe2527"><path d="m50.9 59-14.8 13 17.3-17.2"/><path d="m50.9 59-14.8 13 17.3-17.2"/><path d="m50.9 59-14.8 13 17.3-17.2"/></g><path d="m50.9 59-14.8 13 17.3-17.2" fill="#c1272d"/></g><path d="m48.8 62.1c-.2.6-.6 1.2-1.1 1.7-1.1 1.1-2.8 2-4.2 2.3-3.6 2.6-7.2 5-10.6 7 0 .7-.1 1.4-.6 2-1 1.3-2.6 1.5-2.5 1.6.1.3 6.2-.6 12.6-3.6 2-1 2.9-1.6 3.3-1.9 1.9-1.4 5.3-3.9 4.9-7.2-.1-.6-.2-1.1-.5-1.7-.5 0-.9-.1-1.3-.2z" fill="#666" opacity=".17"/><g fill="#f7d500"><path d="m67.4 18.5c-2.7 1.7-7.4 2.1-11.1-.2-3.9-2.4-5.6-7.1-4-11 1.8-4.7 6.5-6.5 9.6-6.4-4 2.7-5.7 6.3-4.3 10.7 1.3 4.4 4.8 6.6 9.8 6.9z"/><path d="m45.4 27.7-1.8-.2-1.3 1.3-.3-1.7-1.7-.7 1.6-.8.2-1.7 1.4 1.2 1.8-.4-.8 1.5z"/><path d="m69.4 72.1-.9-.5-.9.4.2-.9-.6-.6.9-.1.5-.8.4.8 1 .2-.8.6z"/><path d="m61.7 88.3-1-.9-1.3.2.7-1.1-.7-1.1 1.4.2.9-.9.2 1.3 1.2.5-1.2.6z"/><path d="m89.1 49-1.9-1.5-2.4.6 1-2.1-1.3-1.9 2.5.2 1.6-1.7.5 2.2 2.3.8-2.1 1.2z"/><path d="m25.8 25.3-1.7-.7-1.7.9.2-1.8-1.5-1.1 1.9-.4.8-1.6.9 1.5 2 .2-1.3 1.3z"/><path d="m20.3 49.5-.8-.5-.9.4.2-.8-.7-.7 1-.1.4-.8.4.8 1 .2-.7.6z"/><path d="m95.9 34.7-.8-.5-.9.4.2-.9-.7-.6 1-.1.5-.8.3.8 1 .2-.7.6z"/><path d="m81.3 7.2-.8-.4-.9.4.2-.9-.7-.7 1-.1.5-.8.4.9.9.1-.7.6z"/></g></svg>