<svg enable-background="new 0 0 100 100" viewBox="0 0 100 100" xmlns="http://www.w3.org/2000/svg"><path d="m90 27v.2h1c-.4 0-.7-.1-1-.2z" fill="#2e4551"/><path d="m29.4 64s3.5.1 3.5 4.3v4.5 4.5 2.4c0 1.2 1 2.1 2.1 2.1h9.2c1.2 0 2.1-1 2.1-2.1v-2.4-4.5-8.7z" fill="#ccc"/><path d="m29.4 64s3.5.1 3.5 4.3v4.5 4.5 2.4c0 1.2 1 2.1 2.1 2.1h9.2c1.2 0 2.1-1 2.1-2.1v-2.4-4.5-8.7z" fill="none" stroke="#2e4551" stroke-miterlimit="10"/><path d="m29.4 64s3.5.1 3.5 4.3v4.5 4.5 2.4c0 1.2 1 2.1 2.1 2.1h9.2c1.2 0 2.1-1 2.1-2.1v-2.4-4.5-8.7z" fill="#ccc"/><path d="m29.4 64s3.5.1 3.5 4.3v4.5 4.5 2.4c0 1.2 1 2.1 2.1 2.1h9.2c1.2 0 2.1-1 2.1-2.1v-2.4-4.5-8.7z" fill="#2e4551"/><path d="m47.1 64.3h-28.2c-2.1 0-3.9-1.8-3.9-3.9 0-2.1 1.8-3.9 3.9-3.9h28.2c2.1 0 3.9 1.8 3.9 3.9 0 2.1-1.8 3.9-3.9 3.9z" fill="#324d5b"/><path d="m15 54.2h36v7.8h-36z" fill="#2e4551"/><path d="m5.8 40.8c-2 0-3.7-1.7-3.7-3.7v-1.3c0-2 1.7-3.7 3.7-3.7 2 0 3.7 1.7 3.7 3.7v1.3c0 2.1-1.6 3.7-3.7 3.7z" fill="#2d4552"/><path d="m52.4 27.5h-43.8c-1.1 0-2 .9-2 2v29.3c0 1.1.9 2 2 2h20.4 23.4 2v-2-21-8.3c0-1.2-.9-2-2-2z" fill="#3f5e6d"/><circle cx="46.4" cy="35.5" fill="#2d4552" r="3.4"/><circle cx="46" cy="34.9" fill="#e4e7e7" r="3.4"/><path d="m46 35.1c-.3 0-.5-.2-.5-.5v-3.1c0-.3.2-.5.5-.5.3 0 .5.2.5.5v3.1c0 .3-.2.5-.5.5z" fill="#bcbebe"/><path d="m55.7 34.2h4.9v13.5h-4.9z" fill="#2d4552"/><path d="m69.1 33.5c-3.2-5.2-8.5.8-8.5.8l-.2 6.7.1 6.6s5.3 6 8.5.8l.1-7.4z" fill="#3f5e6d"/><path d="m54 34.2h1.7v13.5h-1.7z" fill="#324d5b"/><circle cx="50.8" cy="41.3" fill="#e92321" r="1"/><g fill="#324d5b"><path d="m32.8 67.8h13.5v2.5h-13.5z"/><path d="m32.8 72.2h13.5v2.5h-13.5z"/><path d="m32.8 76.4h13.5v2.5h-13.5z"/></g><path d="m69.1 33.5c-3-4.8-7.8.1-8.4.7v-.1h-4.9-1.3v-4.8c0-.8-.5-1.5-1.1-1.8v1.8c0 4-.7 7.8-1.8 11.3-.2.5-.4 1-.6 1.5-1.8 4.6-4.5 8.7-7.9 11.9-.8.8-1.7 1.6-2.6 2.3-2.3 1.8-4.8 3.2-7.6 4.2-1.5.6-3 1-4.5 1.3-1.9.4-3.8.6-5.8.6s-3.9-.2-5.8-.6h-1.8v.5c0 1 .8 1.8 1.8 1.8h13.7c1 .4 2.3 1.3 2.4 3.6h-.1v2.5h.1v1.9h-.1v2.5h.1v1.7h-.1v2.7h.1v.8c0 1.2 1 2.1 2.1 2.1h9.2c1.2 0 2.1-1 2.1-2.1v-2.4-4.5-8.5h2.8c1 0 1.8-.8 1.8-1.8v-.6-1.3h1.5 2v-2-11h1.3 4.9v-.1c.6.7 5.4 5.5 8.4.7l.1-7.4z" fill="#333" opacity=".11"/><circle cx="35.9" cy="53.2" fill="#c49541" r="1.9"/><circle cx="40.6" cy="53.2" fill="#158784" r="1.9"/><circle cx="35.7" cy="53" fill="#e6c05c" r="1.9"/><circle cx="40.4" cy="53" fill="#00a0ab" r="1.9"/><path d="m30.9 51.7h-16.3-6.2-1.8v3h1.8 6.2 16.3c.8 0 1.5-.7 1.5-1.5s-.6-1.5-1.5-1.5z" fill="#ccc"/><path d="m17 47.1h-6-4.4v3h4.4 6c.8 0 1.5-.7 1.5-1.5s-.6-1.5-1.5-1.5z" fill="#ccc"/><path d="m17 46.8h-6-4.4v3h4.4 6c.8 0 1.5-.7 1.5-1.5s-.6-1.5-1.5-1.5z" fill="#e6e6e6"/><path d="m30.9 51.3h-16.3-6.2-1.8v3h1.8 6.2 16.3c.8 0 1.5-.7 1.5-1.5s-.6-1.5-1.5-1.5z" fill="#e6e6e6"/><path d="m30.9 51.3h-16.3-6.2-1.8v3h1.8 6.2 16.3c.8 0 1.5-.7 1.5-1.5s-.6-1.5-1.5-1.5z" fill="#e6e6e6"/><path d="m75.6 39.4c.7-.1 1.5-.1 2.2-.3 1-.2 2-.5 2.9-.8 1.6-.6 2.5-1.7 3.1-3.1s.8-2.9 1-4.4c.2-1.4.4-2.8.6-4.1.1.5.1 1 .2 1.5.3 2.1.5 4.2 1.1 6.2.4 1.2.9 2.4 2.1 3.3.7.5 1.5.9 2.4 1.1 1.2.3 2.4.5 3.6.7.1 0 .1 0 .2.1-.7.1-1.4.3-2.1.4-1.1.2-2.2.6-3.2 1.1-1.4.7-2.3 1.8-2.9 3.1-.5 1.2-.8 2.4-.9 3.7-.2 1.5-.4 3.1-.6 4.6-.1-.7-.2-1.4-.3-2-.3-1.8-.5-3.7-1-5.5-.4-1.4-1.1-2.6-2.5-3.5-.9-.6-2-1-3.1-1.3-.8-.2-1.7-.4-2.6-.5-.1 0-.2 0-.3 0 .1-.3.1-.3.1-.3z" fill="#f7d500"/><path d="m95.4 41.9c.1.8.2 1.5.3 2.2 0 .3.1.5.2.8.3 1 1.1 1.6 2.2 1.8.3.1.6.1.9.2-.3.1-.6.1-.8.2-1 .2-1.9.7-2.2 1.7-.2.5-.2 1-.3 1.5-.1.4-.1.9-.2 1.3 0 .1 0 .1-.1.2-.1-.8-.3-1.6-.4-2.4 0-.1 0-.1 0-.2-.2-1.1-1-1.8-2.2-2.1-.3-.1-.6-.1-1-.2.5-.1.9-.2 1.3-.3 1.1-.2 1.7-.9 1.9-1.8.1-1 .2-1.9.4-2.9z" fill="#fdae09"/><path d="m74.5 34.3c.1 0 .1-.1 0 0 1.2-.2 1.5-.5 1.6-1.7 0-.3.1-.6.2-.9.1.4.1.8.2 1.2.1.8.4 1.1 1.3 1.3h.3c-.2.1-.3.1-.5.1-.6.1-1 .5-1.1 1s-.2.9-.3 1.4c0-.3-.1-.6-.1-.9 0-.2-.1-.4-.1-.6-.1-.5-.5-.8-1.1-1 0 .2-.2.1-.4.1z" fill="#ffe41f"/><path d="m90.9 27.9c-1 .1-.9.8-1 1.4-.1-.6 0-1.3-1-1.4 1-.1.9-.8 1-1.4.2.6 0 1.3 1 1.4z" fill="#f7d500"/></svg>