<?xml version="1.0" encoding="utf-8"?>
<!-- Generator: Adobe Illustrator 21.0.0, SVG Export Plug-In . SVG Version: 6.00 Build 0)  -->
<svg version="1.1" id="Layer_1" xmlns="http://www.w3.org/2000/svg" xmlns:xlink="http://www.w3.org/1999/xlink" x="0px" y="0px"
	 viewBox="0 0 100 100" style="enable-background:new 0 0 100 100;" xml:space="preserve">
<style type="text/css">
	.st0{fill:#C5100C;}
	.st1{fill:#E92321;}
	.st2{fill:#666666;}
	.st3{fill:#B3B3B3;}
	.st4{fill:#CCCCCC;}
	.st5{fill:#B9BCBA;}
	.st6{fill:#F4F4F4;}
	.st7{fill:#FFFFFF;}
	.st8{fill:#FDAE09;}
	.st9{fill:#FFE41F;}
	.st10{fill:#FFF7EA;}
	.st11{fill:#FE2527;}
	.st12{opacity:4.000000e-02;}
	.st13{fill:#4D4D4D;}
	.st14{opacity:0.47;fill:#E6E6E6;stroke:#808080;stroke-width:2;stroke-miterlimit:10;}
	.st15{fill:#00A0AB;}
	.st16{opacity:0.12;fill:#FFFFFF;}
	.st17{fill:#007C7C;}
	.st18{opacity:0.48;fill:#FFFFFF;}
	.st19{opacity:0.75;}
	.st20{fill:#C1272D;}
	.st21{opacity:0.17;fill:#666666;}
	.st22{fill:#F7D500;}
	.st23{fill:#D2D3D5;}
	.st24{fill:#A8A9AA;}
	.st25{fill:#181818;}
	.st26{fill:#EAEDF1;}
	.st27{fill:#D8D8D8;}
	.st28{fill:#C61934;}
	.st29{fill:#FBD50A;}
	.st30{fill:#39B54A;}
	.st31{fill:#8FB6D7;}
	.st32{fill:#155283;}
	.st33{opacity:0.75;fill:#C1272D;}
	.st34{opacity:0.33;fill:#E92321;}
	.st35{opacity:4.000000e-02;fill:#666666;}
	.st36{fill:#2E4551;}
	.st37{fill:none;stroke:#2E4551;stroke-miterlimit:10;}
	.st38{fill:#324D5B;}
	.st39{fill:#2D4552;}
	.st40{fill:#3F5E6D;}
	.st41{fill:#E4E7E7;}
	.st42{fill:#BCBEBE;}
	.st43{opacity:0.11;fill:#333333;}
	.st44{fill:#C49541;}
	.st45{fill:#158784;}
	.st46{fill:#E6C05C;}
	.st47{fill:#E6E6E6;}
	.st48{fill:url(#SVGID_1_);}
	.st49{fill:url(#SVGID_2_);}
	.st50{fill:url(#SVGID_3_);}
</style>
<g>
	<path class="st36" d="M90,27v0.2h1C90.6,27.2,90.3,27.1,90,27z"/>
	<g>
		<g>
			<path class="st4" d="M29.4,64c0,0,3.5,0.1,3.5,4.3c0,1.5,0,3.1,0,4.5c0,2.5,0,4.5,0,4.5v2.4c0,1.2,1,2.1,2.1,2.1h9.2
				c1.2,0,2.1-1,2.1-2.1v-2.4v-4.5v-8.7L29.4,64z"/>
			<path class="st37" d="M29.4,64c0,0,3.5,0.1,3.5,4.3c0,1.5,0,3.1,0,4.5c0,2.5,0,4.5,0,4.5v2.4c0,1.2,1,2.1,2.1,2.1h9.2
				c1.2,0,2.1-1,2.1-2.1v-2.4v-4.5v-8.7L29.4,64z"/>
			<path class="st4" d="M29.4,64c0,0,3.5,0.1,3.5,4.3c0,1.5,0,3.1,0,4.5c0,2.5,0,4.5,0,4.5v2.4c0,1.2,1,2.1,2.1,2.1h9.2
				c1.2,0,2.1-1,2.1-2.1v-2.4v-4.5v-8.7L29.4,64z"/>
			<path class="st36" d="M29.4,64c0,0,3.5,0.1,3.5,4.3c0,1.5,0,3.1,0,4.5c0,2.5,0,4.5,0,4.5v2.4c0,1.2,1,2.1,2.1,2.1h9.2
				c1.2,0,2.1-1,2.1-2.1v-2.4v-4.5v-8.7L29.4,64z"/>
		</g>
		<path class="st38" d="M47.1,64.3H18.9c-2.1,0-3.9-1.8-3.9-3.9v0c0-2.1,1.8-3.9,3.9-3.9h28.2c2.1,0,3.9,1.8,3.9,3.9v0
			C51,62.5,49.2,64.3,47.1,64.3z"/>
		<rect x="15" y="54.2" class="st36" width="36" height="7.8"/>
		<g>
			<path class="st39" d="M5.8,40.8L5.8,40.8c-2,0-3.7-1.7-3.7-3.7v-1.3c0-2,1.7-3.7,3.7-3.7h0c2,0,3.7,1.7,3.7,3.7v1.3
				C9.5,39.2,7.9,40.8,5.8,40.8z"/>
			<path class="st40" d="M52.4,27.5H8.6c-1.1,0-2,0.9-2,2v29.3c0,1.1,0.9,2,2,2H29h23.4h2v-2V37.8v-8.3
				C54.4,28.3,53.5,27.5,52.4,27.5z"/>
		</g>
		<circle class="st39" cx="46.4" cy="35.5" r="3.4"/>
		<circle class="st41" cx="46" cy="34.9" r="3.4"/>
		<path class="st42" d="M46,35.1L46,35.1c-0.3,0-0.5-0.2-0.5-0.5v-3.1c0-0.3,0.2-0.5,0.5-0.5h0c0.3,0,0.5,0.2,0.5,0.5v3.1
			C46.5,34.9,46.3,35.1,46,35.1z"/>
		<g>
			<rect x="55.7" y="34.2" class="st39" width="4.9" height="13.5"/>
			<path class="st40" d="M69.1,33.5c-3.2-5.2-8.5,0.8-8.5,0.8L60.4,41l0.1,6.6c0,0,5.3,6,8.5,0.8l0.1-7.4L69.1,33.5z"/>
			<rect x="54" y="34.2" class="st38" width="1.7" height="13.5"/>
		</g>
		<circle class="st1" cx="50.8" cy="41.3" r="1"/>
		<rect x="32.8" y="67.8" class="st38" width="13.5" height="2.5"/>
		<rect x="32.8" y="72.2" class="st38" width="13.5" height="2.5"/>
		<rect x="32.8" y="76.4" class="st38" width="13.5" height="2.5"/>
		<path class="st43" d="M69.1,33.5c-3-4.8-7.8,0.1-8.4,0.7v-0.1h-4.9h-1.3v-4.8c0-0.8-0.5-1.5-1.1-1.8c0,0.6,0,1.2,0,1.8
			c0,4-0.7,7.8-1.8,11.3c-0.2,0.5-0.4,1-0.6,1.5c-1.8,4.6-4.5,8.7-7.9,11.9c-0.8,0.8-1.7,1.6-2.6,2.3c-2.3,1.8-4.8,3.2-7.6,4.2
			c-1.5,0.6-3,1-4.5,1.3c-1.9,0.4-3.8,0.6-5.8,0.6c-2,0-3.9-0.2-5.8-0.6H15v0.5c0,1,0.8,1.8,1.8,1.8h13.7c1,0.4,2.3,1.3,2.4,3.6
			h-0.1v2.5h0.1c0,0.6,0,1.3,0,1.9h-0.1v2.5h0.1c0,0.7,0,1.3,0,1.7h-0.1V79h0.1v0.8c0,1.2,1,2.1,2.1,2.1h9.2c1.2,0,2.1-1,2.1-2.1
			v-2.4v-4.5v-8.5h2.8c1,0,1.8-0.8,1.8-1.8V62v-1.3h1.5h2v-2v-11h1.3h4.9v-0.1c0.6,0.7,5.4,5.5,8.4,0.7l0.1-7.4L69.1,33.5z"/>
		<g>
			<circle class="st44" cx="35.9" cy="53.2" r="1.9"/>
			<circle class="st45" cx="40.6" cy="53.2" r="1.9"/>
			<circle class="st46" cx="35.7" cy="53" r="1.9"/>
			<circle class="st15" cx="40.4" cy="53" r="1.9"/>
		</g>
		<path class="st4" d="M30.9,51.7H14.6H8.4H6.6v3h1.8h6.2h16.3c0.8,0,1.5-0.7,1.5-1.5S31.8,51.7,30.9,51.7z"/>
		<path class="st4" d="M17,47.1h-6H6.6v3H11h6c0.8,0,1.5-0.7,1.5-1.5S17.9,47.1,17,47.1z"/>
		<path class="st47" d="M17,46.8h-6H6.6v3H11h6c0.8,0,1.5-0.7,1.5-1.5S17.9,46.8,17,46.8z"/>
		<g>
			<path class="st47" d="M30.9,51.3H14.6H8.4H6.6v3h1.8h6.2h16.3c0.8,0,1.5-0.7,1.5-1.5S31.8,51.3,30.9,51.3z"/>
			<path class="st47" d="M30.9,51.3H14.6H8.4H6.6v3h1.8h6.2h16.3c0.8,0,1.5-0.7,1.5-1.5S31.8,51.3,30.9,51.3z"/>
		</g>
	</g>
	<path class="st22" d="M75.6,39.4c0.7-0.1,1.5-0.1,2.2-0.3c1-0.2,2-0.5,2.9-0.8c1.6-0.6,2.5-1.7,3.1-3.1c0.6-1.4,0.8-2.9,1-4.4
		c0.2-1.4,0.4-2.8,0.6-4.1c0.1,0.5,0.1,1,0.2,1.5c0.3,2.1,0.5,4.2,1.1,6.2c0.4,1.2,0.9,2.4,2.1,3.3c0.7,0.5,1.5,0.9,2.4,1.1
		c1.2,0.3,2.4,0.5,3.6,0.7c0.1,0,0.1,0,0.2,0.1c-0.7,0.1-1.4,0.3-2.1,0.4c-1.1,0.2-2.2,0.6-3.2,1.1c-1.4,0.7-2.3,1.8-2.9,3.1
		c-0.5,1.2-0.8,2.4-0.9,3.7c-0.2,1.5-0.4,3.1-0.6,4.6c-0.1-0.7-0.2-1.4-0.3-2c-0.3-1.8-0.5-3.7-1-5.5c-0.4-1.4-1.1-2.6-2.5-3.5
		c-0.9-0.6-2-1-3.1-1.3c-0.8-0.2-1.7-0.4-2.6-0.5c-0.1,0-0.2,0-0.3,0C75.6,39.4,75.6,39.4,75.6,39.4z"/>
	<path class="st8" d="M95.4,41.9c0.1,0.8,0.2,1.5,0.3,2.2c0,0.3,0.1,0.5,0.2,0.8c0.3,1,1.1,1.6,2.2,1.8c0.3,0.1,0.6,0.1,0.9,0.2
		c-0.3,0.1-0.6,0.1-0.8,0.2c-1,0.2-1.9,0.7-2.2,1.7c-0.2,0.5-0.2,1-0.3,1.5c-0.1,0.4-0.1,0.9-0.2,1.3c0,0.1,0,0.1-0.1,0.2
		c-0.1-0.8-0.3-1.6-0.4-2.4c0-0.1,0-0.1,0-0.2c-0.2-1.1-1-1.8-2.2-2.1c-0.3-0.1-0.6-0.1-1-0.2c0.5-0.1,0.9-0.2,1.3-0.3
		c1.1-0.2,1.7-0.9,1.9-1.8C95.1,43.8,95.2,42.9,95.4,41.9z"/>
	<path class="st9" d="M74.5,34.3C74.6,34.3,74.6,34.2,74.5,34.3c1.2-0.2,1.5-0.5,1.6-1.7c0-0.3,0.1-0.6,0.2-0.9
		c0.1,0.4,0.1,0.8,0.2,1.2c0.1,0.8,0.4,1.1,1.3,1.3c0.1,0,0.1,0,0.3,0c-0.2,0.1-0.3,0.1-0.5,0.1c-0.6,0.1-1,0.5-1.1,1
		c-0.1,0.5-0.2,0.9-0.3,1.4c0-0.3-0.1-0.6-0.1-0.9c0-0.2-0.1-0.4-0.1-0.6c-0.1-0.5-0.5-0.8-1.1-1C74.9,34.4,74.7,34.3,74.5,34.3z"/>
	<path class="st22" d="M90.9,27.9c-1,0.1-0.9,0.8-1,1.4c-0.1-0.6,0-1.3-1-1.4c1-0.1,0.9-0.8,1-1.4C90.1,27.1,89.9,27.8,90.9,27.9z"
		/>
</g>
</svg>
